HIERARCHY
ROOT hips
{
	OFFSET 0.000000 104.274902 0.000000
	CHANNELS 6 Xposition Yposition Zposition Xrotation Yrotation Zrotation
	JOINT spine
	{
		OFFSET 0.000000 10.181549 0.131524
		CHANNELS 6 Xposition Yposition Zposition Xrotation Yrotation Zrotation
		JOINT chest
		{
			OFFSET 0.000000 9.893990 -1.470706
			CHANNELS 3 Xrotation Yrotation Zrotation
			JOINT upperChest
			{
				OFFSET 0.000000 9.220787 -1.370637
				CHANNELS 3 Xrotation Yrotation Zrotation
				JOINT neck
				{
					OFFSET 0.000000 16.740372 -2.049022
					CHANNELS 6 Xposition Yposition Zposition Xrotation Yrotation Zrotation
					JOINT head
					{
						OFFSET 0.000000 9.617859 1.684976
						CHANNELS 6 Xposition Yposition Zposition Xrotation Yrotation Zrotation
						JOINT headEnd
						{
							OFFSET 0.000000 22.037384 7.501072
							CHANNELS 6 Xposition Yposition Zposition Xrotation Yrotation Zrotation
							End Site
							{
								OFFSET 0.000000 23.106567 -2.828246
							}
						}
					}
				}
				JOINT rightShoulder
				{
					OFFSET -4.570000 11.014877 -2.160840
					CHANNELS 6 Xposition Yposition Zposition Xrotation Yrotation Zrotation
					JOINT rightUpperArm
					{
						OFFSET -10.592867 -0.524796 -2.232105
						CHANNELS 3 Xrotation Yrotation Zrotation
						JOINT rightLowerArm
						{
							OFFSET -27.841497 0.000000 -0.000002
							CHANNELS 3 Xrotation Yrotation Zrotation
							JOINT rightHand
							{
								OFFSET -28.328812 0.000000 -0.000001
								CHANNELS 3 Xrotation Yrotation Zrotation
								JOINT rightThumbProximal
								{
									OFFSET -2.464798 -1.573990 2.681911
									CHANNELS 6 Xposition Yposition Zposition Xrotation Yrotation Zrotation
									JOINT rightThumbIntermediate
									{
										OFFSET -3.244781 -1.873383 1.873376
										CHANNELS 3 Xrotation Yrotation Zrotation
										JOINT rightThumbDistal
										{
											OFFSET -2.646263 -1.527817 1.527818
											CHANNELS 6 Xposition Yposition Zposition Xrotation Yrotation Zrotation
											JOINT rightHandThumb4
											{
												OFFSET -1.994591 -1.151581 1.151575
												CHANNELS 6 Xposition Yposition Zposition Xrotation Yrotation Zrotation
												End Site
												{
													OFFSET -1.860176 -1.142715 1.365483
												}
											}
										}
									}
								}
								JOINT rightIndexProximal
								{
									OFFSET -9.108299 -0.517883 2.259803
									CHANNELS 6 Xposition Yposition Zposition Xrotation Yrotation Zrotation
									JOINT rightIndexIntermediate
									{
										OFFSET -3.699997 0.000000 0.000000
										CHANNELS 3 Xrotation Yrotation Zrotation
										JOINT rightIndexDistal
										{
											OFFSET -2.850006 0.000000 0.000000
											CHANNELS 3 Xrotation Yrotation Zrotation
											JOINT rightHandIndex4
											{
												OFFSET -2.772194 0.000000 0.000000
												CHANNELS 3 Xrotation Yrotation Zrotation
												End Site
												{
													OFFSET -2.772202 0.000000 -0.000484
												}
											}
										}
									}
								}
								JOINT rightMiddleProximal
								{
									OFFSET -9.532501 0.000000 -0.000000
									CHANNELS 6 Xposition Yposition Zposition Xrotation Yrotation Zrotation
									JOINT rightMiddleIntermediate
									{
										OFFSET -3.699997 0.000000 0.000000
										CHANNELS 3 Xrotation Yrotation Zrotation
										JOINT rightMiddleDistal
										{
											OFFSET -2.949997 0.000000 0.000000
											CHANNELS 3 Xrotation Yrotation Zrotation
											JOINT rightHandMiddle4
											{
												OFFSET -2.946594 0.000000 0.000000
												CHANNELS 3 Xrotation Yrotation Zrotation
												End Site
												{
													OFFSET -2.946602 0.000000 -0.000982
												}
											}
										}
									}
								}
								JOINT rightRingProximal
								{
									OFFSET -9.103600 -0.043106 -1.865100
									CHANNELS 6 Xposition Yposition Zposition Xrotation Yrotation Zrotation
									JOINT rightRingIntermediate
									{
										OFFSET -3.379303 0.000000 0.000000
										CHANNELS 3 Xrotation Yrotation Zrotation
										JOINT rightRingDistal
										{
											OFFSET -2.889694 0.000000 0.000000
											CHANNELS 3 Xrotation Yrotation Zrotation
											JOINT rightHandRing4
											{
												OFFSET -2.638802 0.000000 0.000000
												CHANNELS 3 Xrotation Yrotation Zrotation
												End Site
												{
													OFFSET -2.638802 0.000000 0.004218
												}
											}
										}
									}
								}
								JOINT rightLittleProximal
								{
									OFFSET -8.076698 -0.486725 -3.806299
									CHANNELS 6 Xposition Yposition Zposition Xrotation Yrotation Zrotation
									JOINT rightLittleIntermediate
									{
										OFFSET -3.600006 0.000000 0.000000
										CHANNELS 3 Xrotation Yrotation Zrotation
										JOINT rightLittleDistal
										{
											OFFSET -2.099998 0.000000 0.000000
											CHANNELS 3 Xrotation Yrotation Zrotation
											JOINT rightHandPinky4
											{
												OFFSET -2.115791 0.000000 0.000000
												CHANNELS 3 Xrotation Yrotation Zrotation
												End Site
												{
													OFFSET -2.115799 0.000000 0.000174
												}
											}
										}
									}
								}
							}
						}
					}
				}
				JOINT leftShoulder
				{
					OFFSET 4.570400 11.014679 -2.160816
					CHANNELS 6 Xposition Yposition Zposition Xrotation Yrotation Zrotation
					JOINT leftUpperArm
					{
						OFFSET 10.592373 -0.524597 -2.232116
						CHANNELS 3 Xrotation Yrotation Zrotation
						JOINT leftLowerArm
						{
							OFFSET 27.841488 0.000000 0.000001
							CHANNELS 3 Xrotation Yrotation Zrotation
							JOINT leftHand
							{
								OFFSET 28.328808 0.000000 -0.000000
								CHANNELS 3 Xrotation Yrotation Zrotation
								JOINT leftThumbProximal
								{
									OFFSET 2.466103 -1.576202 2.681698
									CHANNELS 6 Xposition Yposition Zposition Xrotation Yrotation Zrotation
									JOINT leftThumbIntermediate
									{
										OFFSET 3.243317 -1.872528 1.872530
										CHANNELS 3 Xrotation Yrotation Zrotation
										JOINT leftThumbDistal
										{
											OFFSET 2.647881 -1.528763 1.528754
											CHANNELS 6 Xposition Yposition Zposition Xrotation Yrotation Zrotation
											JOINT leftHandThumb4
											{
												OFFSET 1.998924 -1.154083 1.154080
												CHANNELS 6 Xposition Yposition Zposition Xrotation Yrotation Zrotation
												End Site
												{
													OFFSET 1.884041 -1.149155 1.337651
												}
											}
										}
									}
								}
								JOINT leftIndexProximal
								{
									OFFSET 9.109299 -0.518005 2.259900
									CHANNELS 6 Xposition Yposition Zposition Xrotation Yrotation Zrotation
									JOINT leftIndexIntermediate
									{
										OFFSET 3.699997 0.000000 0.000000
										CHANNELS 3 Xrotation Yrotation Zrotation
										JOINT leftIndexDistal
										{
											OFFSET 2.850006 0.000000 0.000000
											CHANNELS 3 Xrotation Yrotation Zrotation
											JOINT leftHandIndex4
											{
												OFFSET 2.774895 0.000000 0.000000
												CHANNELS 3 Xrotation Yrotation Zrotation
												End Site
												{
													OFFSET 2.774902 0.000000 -0.000072
												}
											}
										}
									}
								}
								JOINT leftMiddleProximal
								{
									OFFSET 9.533401 0.000000 0.000000
									CHANNELS 6 Xposition Yposition Zposition Xrotation Yrotation Zrotation
									JOINT leftMiddleIntermediate
									{
										OFFSET 3.699997 0.000000 0.000000
										CHANNELS 3 Xrotation Yrotation Zrotation
										JOINT leftMiddleDistal
										{
											OFFSET 2.949997 0.000000 0.000000
											CHANNELS 3 Xrotation Yrotation Zrotation
											JOINT leftHandMiddle4
											{
												OFFSET 2.952896 0.000000 0.000000
												CHANNELS 3 Xrotation Yrotation Zrotation
												End Site
												{
													OFFSET 2.952904 0.000000 0.000165
												}
											}
										}
									}
								}
								JOINT leftRingProximal
								{
									OFFSET 9.104500 -0.042999 -1.865101
									CHANNELS 6 Xposition Yposition Zposition Xrotation Yrotation Zrotation
									JOINT leftRingIntermediate
									{
										OFFSET 3.149994 0.000000 0.000000
										CHANNELS 3 Xrotation Yrotation Zrotation
										JOINT leftRingDistal
										{
											OFFSET 2.950005 0.000000 0.000000
											CHANNELS 3 Xrotation Yrotation Zrotation
											JOINT leftHandRing4
											{
												OFFSET 2.644302 0.000000 0.000000
												CHANNELS 3 Xrotation Yrotation Zrotation
												End Site
												{
													OFFSET 2.644302 0.000000 0.000083
												}
											}
										}
									}
								}
								JOINT leftLittleProximal
								{
									OFFSET 8.077805 -0.486893 -3.806302
									CHANNELS 6 Xposition Yposition Zposition Xrotation Yrotation Zrotation
									JOINT leftLittleIntermediate
									{
										OFFSET 3.600006 0.000000 0.000000
										CHANNELS 3 Xrotation Yrotation Zrotation
										JOINT leftLittleDistal
										{
											OFFSET 2.099998 0.000000 0.000000
											CHANNELS 3 Xrotation Yrotation Zrotation
											JOINT leftHandPinky4
											{
												OFFSET 2.125496 0.000000 0.000000
												CHANNELS 3 Xrotation Yrotation Zrotation
												End Site
												{
													OFFSET 2.125504 0.000000 -0.001254
												}
											}
										}
									}
								}
							}
						}
					}
				}
			}
		}
	}
	JOINT rightUpperLeg
	{
		OFFSET -8.207800 -6.751701 -1.599544
		CHANNELS 6 Xposition Yposition Zposition Xrotation Yrotation Zrotation
		JOINT rightLowerLeg
		{
			OFFSET 0.000004 -44.370152 0.345934
			CHANNELS 3 Xrotation Yrotation Zrotation
			JOINT rightFoot
			{
				OFFSET 0.000004 -44.423664 -3.043535
				CHANNELS 3 Xrotation Yrotation Zrotation
				JOINT rightToes
				{
					OFFSET 0.000001 -8.728691 10.710592
					CHANNELS 3 Xrotation Yrotation Zrotation
					JOINT rightToesEnd
					{
						OFFSET 0.000000 -0.000665 9.278101
						CHANNELS 3 Xrotation Yrotation Zrotation
						End Site
						{
							OFFSET 0.000000 -0.000665 9.278103
						}
					}
				}
			}
		}
	}
	JOINT leftUpperLeg
	{
		OFFSET 8.207800 -6.751701 -1.599544
		CHANNELS 6 Xposition Yposition Zposition Xrotation Yrotation Zrotation
		JOINT leftLowerLeg
		{
			OFFSET 0.000004 -44.370037 0.346940
			CHANNELS 3 Xrotation Yrotation Zrotation
			JOINT leftFoot
			{
				OFFSET 0.000004 -44.423611 -3.044388
				CHANNELS 3 Xrotation Yrotation Zrotation
				JOINT leftToes
				{
					OFFSET 0.000001 -8.728690 10.710592
					CHANNELS 3 Xrotation Yrotation Zrotation
					JOINT leftToesEnd
					{
						OFFSET 0.000000 -0.000680 9.278101
						CHANNELS 3 Xrotation Yrotation Zrotation
						End Site
						{
							OFFSET 0.000000 -0.000680 9.278101
						}
					}
				}
			}
		}
	}
}
MOTION
Frames: 4
Frame Time: 0.033333
-2.863487 111.481400 1.318362 -2.706881 1.491224 -18.261761 0.000002 10.181554 0.131525 -0.975824 -0.232717 0.155983 -1.897528 -1.120384 -3.907537 -1.888387 -1.128683 -3.613536 -0.000007 16.740355 -2.049019 -3.850080 -5.255145 -6.050114 -0.000001 9.617842 1.684988 -26.322173 -30.402275 -10.276925 -0.000004 22.037384 7.501065 0.000003 0.000004 0.000002 -4.570011 11.014884 -2.160838 -0.938402 -1.702715 -24.992188 -47.819725 41.984452 19.262728 -0.000004 38.162811 0.000037 11.795882 -7.262153 -5.374272 -2.464828 -1.573999 2.681910 -38.337712 -0.305057 -3.312102 4.645037 -8.656799 -0.231293 -2.646271 -1.527802 1.527817 -1.269840 0.126082 -2.098679 -1.994590 -1.151595 1.151574 -0.000000 0.000000 0.000003 -9.108304 -0.517878 2.259801 0.226460 -1.763473 14.633603 0.215899 -1.722601 14.286965 0.054171 -0.868030 7.141853 0.000002 -0.000000 0.000001 -9.532514 0.000001 -0.000006 0.226460 -1.763473 14.633602 0.215900 -1.722602 14.286968 0.054173 -0.868029 7.141854 0.000004 0.000003 0.000001 -9.103601 -0.043103 -1.865104 0.226459 -1.763473 14.633603 0.215899 -1.722601 14.286965 0.054168 -0.868029 7.141852 0.000002 -0.000000 0.000003 -8.076700 -0.486726 -3.806304 0.226460 -1.763473 14.633605 0.215902 -1.722599 14.286967 0.054169 -0.868037 7.141858 0.000005 -0.000001 -0.000002 4.570389 11.014699 -2.160812 2.122895 -5.293733 -8.203592 -11.153711 9.457153 -31.121125 -0.000010 -50.167842 -0.000012 11.971908 -18.780787 10.876002 2.466115 -1.576216 2.681689 -9.270839 -16.192125 18.228399 7.611414 15.456638 -3.771431 2.647881 -1.528739 1.528744 1.166868 5.392150 0.593978 1.998928 -1.154082 1.154076 0.000004 0.000002 0.000005 9.109289 -0.518013 2.259898 0.337324 2.132761 -17.974126 0.032362 0.668275 -5.546421 0.008110 0.334512 -2.773112 0.000000 -0.000001 0.000000 9.533394 -0.000008 0.000000 0.336712 2.130933 -17.958130 0.032550 0.670186 -5.562395 0.008097 0.334525 -2.773102 0.000001 0.000003 -0.000001 9.104501 -0.043000 -1.865104 0.337324 2.132761 -17.974123 0.032360 0.668277 -5.546422 0.008109 0.334513 -2.773112 -0.000001 -0.000003 0.000001 8.077816 -0.486881 -3.806305 1.577082 5.993926 -17.551607 0.020290 -3.386299 -6.054803 0.008101 0.334531 -2.773122 0.000003 -0.000002 0.000001 -8.207799 -6.751705 -1.599550 -40.989123 -1.754557 -1.655872 67.633824 -2.610908 -0.287936 31.720423 0.472728 7.220849 0.000006 0.000005 0.000003 -0.000005 -0.000000 0.000000 8.207797 -6.751693 -1.599543 -8.747375 14.332882 19.892082 12.152582 -2.564665 0.055202 29.655616 2.948157 -17.956963 -32.130023 -0.372823 5.899376 -0.000001 0.000000 -0.000000 
-2.856369 110.475349 1.333611 -4.728269 -6.837324 -19.328416 0.000004 10.181553 0.131523 -1.397623 -0.646664 0.557013 -2.609074 -1.645197 -3.138560 -2.592843 -1.669946 -2.930745 -0.000012 16.740370 -2.049022 -4.128496 -5.405071 -5.892338 -0.000004 9.617870 1.684980 -26.208935 -31.164726 -9.877324 -0.000004 22.037369 7.501093 -0.000004 -0.000001 0.000002 -4.570010 11.014843 -2.160841 -0.721375 -1.176908 -24.128354 -43.773808 32.800385 12.844309 0.000013 34.312043 0.000029 7.109307 -9.381453 -11.703428 -2.464822 -1.573991 2.681920 -38.337712 -0.305059 -3.312103 4.645032 -8.656796 -0.231296 -2.646257 -1.527832 1.527810 -1.269835 0.126082 -2.098676 -1.994578 -1.151559 1.151580 -0.000001 -0.000003 -0.000002 -9.108312 -0.517881 2.259811 0.226461 -1.763472 14.633607 0.215899 -1.722604 14.286967 0.054170 -0.868027 7.141858 -0.000001 -0.000001 0.000002 -9.532521 0.000007 0.000012 0.226461 -1.763471 14.633605 0.215893 -1.722605 14.286965 0.054169 -0.868028 7.141856 0.000002 -0.000001 0.000001 -9.103612 -0.043103 -1.865094 0.226461 -1.763472 14.633603 0.215901 -1.722602 14.286970 0.054169 -0.868027 7.141856 0.000002 -0.000001 0.000005 -8.076704 -0.486726 -3.806288 0.226461 -1.763474 14.633607 0.215895 -1.722600 14.286967 0.054167 -0.868037 7.141858 -0.000002 0.000000 -0.000000 4.570396 11.014665 -2.160817 1.830421 -4.112704 -6.421538 -11.466844 13.201689 -31.384494 -0.000023 -44.886764 -0.000005 15.247007 -17.067647 15.635217 2.466104 -1.576218 2.681682 -9.270861 -16.192119 18.228385 7.611419 15.456638 -3.771436 2.647880 -1.528753 1.528762 1.166867 5.392148 0.593978 1.998917 -1.154091 1.154083 0.000002 -0.000001 -0.000000 9.109293 -0.518013 2.259892 0.337326 2.132763 -17.974124 0.032361 0.668275 -5.546422 0.008101 0.334513 -2.773112 -0.000003 -0.000002 -0.000000 9.533401 -0.000013 -0.000013 0.336712 2.130933 -17.958126 0.032546 0.670185 -5.562393 0.008098 0.334529 -2.773102 -0.000001 0.000002 -0.000001 9.104496 -0.042984 -1.865103 0.337326 2.132763 -17.974123 0.032361 0.668276 -5.546421 0.008102 0.334513 -2.773111 -0.000002 -0.000005 0.000002 8.077801 -0.486897 -3.806307 1.577080 5.993928 -17.551605 0.020292 -3.386299 -6.054803 0.008096 0.334533 -2.773123 -0.000005 0.000001 -0.000000 -8.207800 -6.751704 -1.599542 -40.607158 -0.557170 -2.693672 70.705449 -4.486537 -0.368116 32.103866 -0.648062 3.463522 -0.000005 -0.000005 0.000004 0.000002 -0.000002 0.000002 8.207804 -6.751699 -1.599542 -10.230534 15.042595 19.816156 17.291782 0.419780 0.241919 26.887337 4.873852 -14.123084 -32.970843 -0.272246 5.085136 -0.000000 0.000001 0.000001 
-2.970440 108.581314 1.349211 -6.595408 -14.636117 -20.537718 0.000001 10.181553 0.131521 -1.816885 -0.999848 0.733565 -3.308090 -2.055074 -2.483823 -3.287367 -2.092764 -2.359484 0.000004 16.740356 -2.049015 -4.473146 -5.494336 -5.744942 0.000001 9.617834 1.684979 -25.821477 -31.673411 -9.421005 -0.000002 22.037354 7.501086 0.000002 -0.000000 0.000001 -4.569995 11.014858 -2.160836 -0.538081 -0.724392 -23.071993 -41.448344 23.350214 8.492501 -0.000019 31.469967 0.000042 2.665453 -11.056356 -18.260576 -2.464778 -1.573990 2.681924 -38.337712 -0.305057 -3.312103 4.645033 -8.656794 -0.231293 -2.646251 -1.527842 1.527817 -1.269835 0.126080 -2.098678 -1.994571 -1.151580 1.151566 -0.000001 -0.000005 0.000001 -9.108289 -0.517879 2.259802 0.226460 -1.763472 14.633605 0.215900 -1.722604 14.286964 0.054173 -0.868031 7.141853 0.000003 -0.000005 0.000005 -9.532495 0.000018 -0.000000 0.226460 -1.763472 14.633602 0.215896 -1.722602 14.286963 0.054171 -0.868031 7.141852 0.000001 0.000002 0.000003 -9.103581 -0.043109 -1.865102 0.226461 -1.763472 14.633602 0.215897 -1.722605 14.286965 0.054175 -0.868034 7.141852 0.000000 0.000000 0.000005 -8.076689 -0.486717 -3.806299 0.226459 -1.763473 14.633605 0.215902 -1.722602 14.286966 0.054164 -0.868040 7.141858 0.000003 -0.000001 0.000002 4.570406 11.014647 -2.160813 1.470891 -2.786921 -4.603585 -11.893818 16.718812 -31.752911 -0.000014 -39.097239 -0.000023 17.608694 -16.269456 20.474028 2.466104 -1.576207 2.681697 -9.270850 -16.192126 18.228378 7.611408 15.456641 -3.771433 2.647877 -1.528759 1.528752 1.166864 5.392150 0.593980 1.998928 -1.154086 1.154063 0.000001 -0.000004 -0.000002 9.109289 -0.518009 2.259904 0.337328 2.132763 -17.974124 0.032353 0.668278 -5.546425 0.008104 0.334512 -2.773114 0.000001 -0.000000 -0.000000 9.533394 -0.000015 0.000003 0.336717 2.130932 -17.958125 0.032546 0.670190 -5.562396 0.008094 0.334526 -2.773102 -0.000001 0.000000 0.000000 9.104496 -0.042995 -1.865105 0.337328 2.132763 -17.974121 0.032358 0.668276 -5.546424 0.008106 0.334512 -2.773113 -0.000007 0.000001 -0.000003 8.077796 -0.486900 -3.806306 1.577083 5.993930 -17.551605 0.020291 -3.386302 -6.054800 0.008098 0.334532 -2.773123 -0.000004 -0.000000 -0.000001 -8.207799 -6.751707 -1.599536 -40.192170 0.531312 -3.758598 73.828450 -6.136591 -0.429362 31.127569 -1.497992 0.168936 0.000017 0.000003 -0.000005 0.000000 0.000003 -0.000002 8.207804 -6.751702 -1.599545 -13.462785 15.204686 19.961399 25.494656 3.199047 0.387455 21.452118 6.748596 -8.557567 -32.074350 -0.120194 3.419919 0.000000 0.000001 0.000000 
-3.238750 106.140930 1.361892 -8.057810 -21.665078 -21.329957 -0.000001 10.181542 0.131524 -2.254895 -1.208014 0.488289 -4.061214 -2.304319 -1.977344 -4.041931 -2.345569 -1.918477 -0.000003 16.740372 -2.049025 -4.971203 -5.435611 -5.617152 -0.000005 9.617840 1.684989 -25.207027 -31.425919 -9.202639 -0.000003 22.037369 7.501075 0.000001 -0.000002 -0.000001 -4.570003 11.014880 -2.160845 -0.459244 -0.579159 -21.872363 -39.457053 13.407232 6.129367 -0.000016 29.679528 0.000052 -1.385178 -12.615915 -24.162701 -2.464806 -1.574002 2.681920 -38.337719 -0.305057 -3.312104 4.645033 -8.656794 -0.231293 -2.646248 -1.527815 1.527807 -1.269836 0.126078 -2.098676 -1.994601 -1.151602 1.151592 -0.000000 0.000000 0.000001 -9.108300 -0.517881 2.259803 0.226460 -1.763474 14.633605 0.215895 -1.722604 14.286965 0.054172 -0.868028 7.141850 -0.000000 0.000000 0.000002 -9.532510 -0.000001 -0.000001 0.226460 -1.763473 14.633602 0.215891 -1.722604 14.286965 0.054173 -0.868030 7.141852 0.000003 -0.000000 -0.000003 -9.103585 -0.043109 -1.865107 0.226460 -1.763474 14.633603 0.215894 -1.722604 14.286967 0.054175 -0.868031 7.141852 0.000002 -0.000000 0.000002 -8.076696 -0.486726 -3.806298 0.226458 -1.763474 14.633605 0.215898 -1.722601 14.286963 0.054167 -0.868041 7.141858 0.000003 -0.000001 0.000002 4.570396 11.014691 -2.160819 1.049247 -1.241210 -2.894827 -12.162795 20.445027 -32.184019 0.000001 -33.269005 0.000005 19.169973 -16.546261 25.066019 2.466107 -1.576206 2.681703 -9.270835 -16.192116 18.228387 7.611409 15.456633 -3.771438 2.647884 -1.528744 1.528742 1.166866 5.392150 0.593977 1.998925 -1.154093 1.154058 0.000002 0.000001 -0.000000 9.109285 -0.518013 2.259904 0.337325 2.132761 -17.974121 0.032355 0.668277 -5.546421 0.008107 0.334514 -2.773113 -0.000003 0.000001 -0.000001 9.533405 0.000001 -0.000008 0.336718 2.130933 -17.958126 0.032553 0.670190 -5.562395 0.008094 0.334528 -2.773101 -0.000000 -0.000002 0.000000 9.104505 -0.042998 -1.865100 0.337325 2.132761 -17.974123 0.032355 0.668275 -5.546422 0.008105 0.334512 -2.773111 -0.000005 0.000000 -0.000003 8.077805 -0.486885 -3.806309 1.577082 5.993926 -17.551605 0.020295 -3.386298 -6.054804 0.008100 0.334535 -2.773126 -0.000002 -0.000001 0.000002 -8.207803 -6.751719 -1.599544 -39.119089 1.134368 -4.771441 76.387196 -7.175159 -0.460725 28.570526 -1.909376 -2.257740 -0.000005 -0.000004 0.000007 0.000001 -0.000001 0.000001 8.207798 -6.751706 -1.599545 -16.823536 15.137688 19.913087 33.326928 5.681724 0.465824 16.168980 7.581499 -2.679743 -31.691637 -0.025393 1.173233 0.000000 -0.000001 0.000000 
